<svg width="52" height="53" viewBox="0 0 52 53" fill="none" xmlns="http://www.w3.org/2000/svg">
<rect y="0.277344" width="52" height="52" rx="26" fill="black" fill-opacity="0.4"/>
<path d="M30 19.6113H34C34.8755 19.6113 35.7424 19.7838 36.5513 20.1188C37.3601 20.4538 38.095 20.9449 38.7141 21.5639C39.3331 22.183 39.8242 22.9179 40.1592 23.7268C40.4943 24.5356 40.6667 25.4025 40.6667 26.278C40.6667 27.1535 40.4943 28.0204 40.1592 28.8292C39.8242 29.6381 39.3331 30.373 38.7141 30.992C38.095 31.6111 37.3601 32.1022 36.5513 32.4372C35.7424 32.7722 34.8755 32.9447 34 32.9447H30M22 32.9447H18C17.1246 32.9447 16.2577 32.7722 15.4488 32.4372C14.64 32.1022 13.9051 31.6111 13.286 30.992C12.0358 29.7418 11.3334 28.0461 11.3334 26.278C11.3334 24.5099 12.0358 22.8142 13.286 21.5639C14.5362 20.3137 16.2319 19.6113 18 19.6113H22M20.6667 26.278H31.3334" stroke="white" stroke-width="2" stroke-linecap="round" stroke-linejoin="round"/>
</svg>
