<svg width="24" height="24" viewBox="0 0 24 24" fill="none" xmlns="http://www.w3.org/2000/svg">
<path d="M11.0601 18H13.0599V10.8H11.0601V18ZM11.9997 8.52C12.2999 8.52 12.5517 8.4203 12.7551 8.2209C12.9583 8.0217 13.0599 7.7747 13.0599 7.4799C13.0599 7.1739 12.9584 6.9174 12.7554 6.7104C12.5522 6.5034 12.3005 6.3999 12.0003 6.3999C11.7001 6.3999 11.4483 6.5034 11.2449 6.7104C11.0417 6.9174 10.9401 7.1739 10.9401 7.4799C10.9401 7.7747 11.0416 8.0217 11.2446 8.2209C11.4478 8.4203 11.6995 8.52 11.9997 8.52ZM12.0054 24C10.3488 24 8.7921 23.685 7.3353 23.055C5.8785 22.425 4.6067 21.5667 3.5199 20.4801C2.4333 19.3933 1.575 18.121 0.945 16.6632C0.315 15.2054 0 13.6477 0 11.9901C0 10.3325 0.315 8.7747 0.945 7.3167C1.575 5.8589 2.4333 4.59 3.5199 3.51C4.6067 2.43 5.879 1.575 7.3368 0.945C8.7946 0.315 10.3523 0 12.0099 0C13.6675 0 15.2253 0.315 16.6833 0.945C18.1411 1.575 19.41 2.43 20.49 3.51C21.57 4.59 22.425 5.86 23.055 7.32C23.685 8.78 24 10.3382 24 11.9946C24 13.6512 23.685 15.2079 23.055 16.6647C22.425 18.1215 21.57 19.392 20.49 20.4762C19.41 21.5604 18.14 22.4188 16.68 23.0514C15.22 23.6838 13.6618 24 12.0054 24ZM12.0099 21.9999C14.7899 21.9999 17.1499 21.0266 19.0899 19.08C21.0299 17.1334 21.9999 14.7701 21.9999 11.9901C21.9999 9.2101 21.0312 6.8501 19.0938 4.9101C17.1562 2.9701 14.7916 2.0001 12 2.0001C9.2266 2.0001 6.8666 2.9688 4.92 4.9062C2.9734 6.8438 2.0001 9.2084 2.0001 12C2.0001 14.7734 2.9734 17.1334 4.92 19.08C6.8666 21.0266 9.2299 21.9999 12.0099 21.9999Z" fill="#052E16"/>
</svg>
