<svg width="52" height="53" viewBox="0 0 52 53" fill="none" xmlns="http://www.w3.org/2000/svg">
<rect y="0.277344" width="52" height="52" rx="26" fill="black" fill-opacity="0.4"/>
<path d="M33.3333 18.9434H33.3466M19.3333 12.9434H32.6666C36.3485 12.9434 39.3333 15.9281 39.3333 19.61V32.9434C39.3333 36.6253 36.3485 39.61 32.6666 39.61H19.3333C15.6514 39.61 12.6666 36.6253 12.6666 32.9434V19.61C12.6666 15.9281 15.6514 12.9434 19.3333 12.9434ZM31.3333 25.4367C31.4978 26.5464 31.3083 27.6796 30.7916 28.6754C30.275 29.6711 29.4575 30.4786 28.4555 30.9829C27.4534 31.4873 26.3179 31.6628 25.2103 31.4846C24.1028 31.3064 23.0796 30.7835 22.2864 29.9902C21.4932 29.197 20.9703 28.1739 20.792 27.0663C20.6138 25.9588 20.7894 24.8232 21.2937 23.8212C21.7981 22.8192 22.6055 22.0017 23.6013 21.485C24.597 20.9683 25.7303 20.7788 26.84 20.9434C27.9719 21.1112 29.0198 21.6386 29.8289 22.4478C30.638 23.2569 31.1654 24.3048 31.3333 25.4367Z" stroke="white" stroke-width="2" stroke-linecap="round" stroke-linejoin="round"/>
</svg>
