<svg width="40" height="41" viewBox="0 0 40 41" fill="none" xmlns="http://www.w3.org/2000/svg">
<path d="M27.6 30L21.3 23.7C20.8 24.1 20.225 24.4167 19.575 24.65C18.925 24.8833 18.2333 25 17.5 25C15.6833 25 14.1458 24.3708 12.8875 23.1125C11.6292 21.8542 11 20.3167 11 18.5C11 16.6833 11.6292 15.1458 12.8875 13.8875C14.1458 12.6292 15.6833 12 17.5 12C19.3167 12 20.8542 12.6292 22.1125 13.8875C23.3708 15.1458 24 16.6833 24 18.5C24 19.2333 23.8833 19.925 23.65 20.575C23.4167 21.225 23.1 21.8 22.7 22.3L29 28.6L27.6 30ZM17.5 23C18.75 23 19.8125 22.5625 20.6875 21.6875C21.5625 20.8125 22 19.75 22 18.5C22 17.25 21.5625 16.1875 20.6875 15.3125C19.8125 14.4375 18.75 14 17.5 14C16.25 14 15.1875 14.4375 14.3125 15.3125C13.4375 16.1875 13 17.25 13 18.5C13 19.75 13.4375 20.8125 14.3125 21.6875C15.1875 22.5625 16.25 23 17.5 23Z" fill="#ECE6F0"/>
</svg>
