<svg width="40" height="40" viewBox="0 0 40 40" fill="none" xmlns="http://www.w3.org/2000/svg">
<path d="M28.5 36.6673C27.1575 36.6673 26.0163 36.1975 25.0763 35.2577C24.1366 34.3177 23.6667 33.1765 23.6667 31.834C23.6667 31.6304 23.7268 31.1859 23.8471 30.5007L11.6388 23.3619C11.1893 23.8219 10.6696 24.1822 10.0796 24.4427C9.48962 24.7036 8.85199 24.834 8.16671 24.834C6.82421 24.834 5.68296 24.3641 4.74296 23.4244C3.80324 22.4844 3.33337 21.3432 3.33337 20.0007C3.33337 18.6582 3.80324 17.5169 4.74296 16.5769C5.68296 15.6372 6.82421 15.1673 8.16671 15.1673C8.83337 15.1673 9.45837 15.2927 10.0417 15.5436C10.625 15.7944 11.1389 16.1412 11.5834 16.584L23.8471 9.50065C23.7916 9.2876 23.7477 9.07232 23.7155 8.85482C23.683 8.63732 23.6667 8.40815 23.6667 8.16732C23.6667 6.82482 24.1366 5.68357 25.0763 4.74357C26.0163 3.80385 27.1575 3.33398 28.5 3.33398C29.8425 3.33398 30.9838 3.80385 31.9238 4.74357C32.8635 5.68357 33.3334 6.82482 33.3334 8.16732C33.3334 9.50982 32.8635 10.6511 31.9238 11.5911C30.9838 12.5308 29.8425 13.0007 28.5 13.0007C27.8467 13.0007 27.2343 12.878 26.663 12.6327C26.0913 12.3872 25.5832 12.0561 25.1388 11.6394L12.7917 18.6119C12.8659 18.8247 12.9191 19.0491 12.9513 19.2852C12.9838 19.5213 13 19.7552 13 19.9869C13 20.2183 12.9885 20.4336 12.9655 20.6327C12.9421 20.8316 12.9027 21.0376 12.8471 21.2507L25.1667 28.334C25.6112 27.9173 26.1167 27.5909 26.6834 27.3548C27.2498 27.1187 27.8567 27.0007 28.5042 27.0007C29.8534 27.0007 30.9955 27.4705 31.9305 28.4102C32.8657 29.3502 33.3334 30.4915 33.3334 31.834C33.3334 33.1765 32.8635 34.3177 31.9238 35.2577C30.9838 36.1975 29.8425 36.6673 28.5 36.6673ZM28.5009 33.8894C29.0837 33.8894 29.5718 33.6923 29.9655 33.2982C30.3588 32.904 30.5555 32.4157 30.5555 31.8332C30.5555 31.2504 30.3584 30.7622 29.9642 30.3686C29.57 29.9752 29.0817 29.7786 28.4992 29.7786C27.9164 29.7786 27.4282 29.9757 27.0346 30.3698C26.6413 30.764 26.4446 31.2523 26.4446 31.8348C26.4446 32.4176 26.6417 32.9058 27.0359 33.2994C27.43 33.6927 27.9184 33.8894 28.5009 33.8894ZM8.16754 22.0561C8.75032 22.0561 9.23851 21.859 9.63212 21.4648C10.0255 21.0707 10.2221 20.5823 10.2221 19.9998C10.2221 19.417 10.025 18.9288 9.63087 18.5352C9.23671 18.1419 8.74837 17.9452 8.16587 17.9452C7.5831 17.9452 7.0949 18.1423 6.70129 18.5365C6.30796 18.9307 6.11129 19.419 6.11129 20.0015C6.11129 20.5843 6.30837 21.0725 6.70254 21.4661C7.09671 21.8594 7.58504 22.0561 8.16754 22.0561ZM28.5009 10.2227C29.0837 10.2227 29.5718 10.0257 29.9655 9.63149C30.3588 9.23732 30.5555 8.74898 30.5555 8.16648C30.5555 7.58371 30.3584 7.09551 29.9642 6.7019C29.57 6.30857 29.0817 6.1119 28.4992 6.1119C27.9164 6.1119 27.4282 6.30898 27.0346 6.70315C26.6413 7.09732 26.4446 7.58565 26.4446 8.16815C26.4446 8.75093 26.6417 9.23912 27.0359 9.63273C27.43 10.0261 27.9184 10.2227 28.5009 10.2227Z" fill="black"/>
</svg>
