<svg width="53" height="53" viewBox="0 0 53 53" fill="none" xmlns="http://www.w3.org/2000/svg">
<rect x="0.75" y="0.277344" width="52" height="52" rx="26" fill="black" fill-opacity="0.4"/>
<g clip-path="url(#clip0_2100_3886)">
<path d="M41.4167 14.2771C40.1399 15.1777 38.7262 15.8666 37.23 16.3171C36.427 15.3938 35.3598 14.7393 34.1728 14.4423C32.9857 14.1453 31.736 14.22 30.5928 14.6564C29.4496 15.0927 28.468 15.8696 27.7807 16.882C27.0934 17.8945 26.7336 19.0935 26.75 20.3171V21.6504C24.4069 21.7112 22.0851 21.1915 19.9914 20.1377C17.8977 19.0839 16.0971 17.5286 14.75 15.6104C14.75 15.6104 9.41671 27.6104 21.4167 32.9437C18.6707 34.8077 15.3996 35.7423 12.0834 35.6104C24.0834 42.2771 38.75 35.6104 38.75 20.2771C38.7488 19.9057 38.7131 19.5352 38.6434 19.1704C40.0042 17.8284 40.9645 16.134 41.4167 14.2771Z" stroke="white" stroke-width="2" stroke-linecap="round" stroke-linejoin="round"/>
</g>
<defs>
<clipPath id="clip0_2100_3886">
<rect width="32" height="32" fill="white" transform="translate(10.75 10.2773)"/>
</clipPath>
</defs>
</svg>
