<svg width="52" height="53" viewBox="0 0 52 53" fill="none" xmlns="http://www.w3.org/2000/svg">
<rect y="0.277344" width="52" height="52" rx="26" fill="black" fill-opacity="0.4"/>
<path d="M35.4001 16.8234C34.1775 15.5889 32.7214 14.6101 31.1167 13.9439C29.5121 13.2778 27.7908 12.9377 26.0534 12.9434C18.7734 12.9434 12.8401 18.8768 12.8401 26.1568C12.8401 28.4901 13.4534 30.7568 14.6001 32.7568L12.7334 39.6101L19.7334 37.7701C21.6667 38.8234 23.8401 39.3834 26.0534 39.3834C33.3334 39.3834 39.2667 33.4501 39.2667 26.1701C39.2667 22.6368 37.8934 19.3168 35.4001 16.8234ZM26.0534 37.1434C24.0801 37.1434 22.1467 36.6101 20.4534 35.6101L20.0534 35.3701L15.8934 36.4634L17.0001 32.4101L16.7334 31.9968C15.6368 30.2462 15.0546 28.2225 15.0534 26.1568C15.0534 20.1034 19.9867 15.1701 26.0401 15.1701C28.9734 15.1701 31.7334 16.3168 33.8001 18.3968C34.8236 19.4152 35.6346 20.6268 36.1862 21.9612C36.7378 23.2956 37.019 24.7262 37.0134 26.1701C37.0401 32.2234 32.1067 37.1434 26.0534 37.1434ZM32.0801 28.9301C31.7467 28.7701 30.1201 27.9701 29.8267 27.8501C29.5201 27.7434 29.3067 27.6901 29.0801 28.0101C28.8534 28.3434 28.2267 29.0901 28.0401 29.3034C27.8534 29.5301 27.6534 29.5568 27.3201 29.3834C26.9867 29.2234 25.9201 28.8634 24.6667 27.7434C23.6801 26.8634 23.0267 25.7834 22.8267 25.4501C22.6401 25.1168 22.8001 24.9434 22.9734 24.7701C23.1201 24.6234 23.3067 24.3834 23.4667 24.1968C23.6267 24.0101 23.6934 23.8634 23.8001 23.6501C23.9067 23.4234 23.8534 23.2368 23.7734 23.0768C23.6934 22.9168 23.0267 21.2901 22.7601 20.6234C22.4934 19.9834 22.2134 20.0634 22.0134 20.0501H21.3734C21.1467 20.0501 20.8001 20.1301 20.4934 20.4634C20.2001 20.7968 19.3467 21.5968 19.3467 23.2234C19.3467 24.8501 20.5334 26.4234 20.6934 26.6368C20.8534 26.8634 23.0267 30.1968 26.3334 31.6234C27.1201 31.9701 27.7334 32.1701 28.2134 32.3168C29.0001 32.5701 29.7201 32.5301 30.2934 32.4501C30.9334 32.3568 32.2534 31.6501 32.5201 30.8768C32.8001 30.1034 32.8001 29.4501 32.7067 29.3034C32.6134 29.1568 32.4134 29.0901 32.0801 28.9301Z" fill="white"/>
</svg>
